<svg width="84" height="92" xmlns="http://www.w3.org/2000/svg"><defs><linearGradient x1="50%" y1="99.998%" x2="50%" y2="-.001%" id="a"><stop stop-color="#FFF" stop-opacity="0" offset="0%"/><stop stop-color="#FFF" stop-opacity=".1" offset="100%"/></linearGradient><linearGradient x1="54.742%" y1="56.708%" x2="70.619%" y2="85.189%" id="b"><stop stop-color="#5B7C8C" stop-opacity="0" offset="0%"/><stop stop-color="#5B7C8C" stop-opacity=".4" offset="100%"/></linearGradient></defs><g fill="none" fill-rule="evenodd"><path d="M-10-4H91V96.069H-10z"/><path d="M79.848 40.883L9.67 1.367C6.676-.319 4.008-.159 2.336 1.446L2.33 1.44C1.194 2.526.52 4.288.52 6.597v78.872c0 2.31.674 4.068 1.81 5.16l.006-.006c1.672 1.605 4.335 1.762 7.334.079l70.178-39.517c5.03-2.833 5.03-7.474 0-10.305v.003z" fill="#37474F" fill-rule="nonzero"/><path d="M89.848 44.883L19.67 5.367c-2.994-1.686-5.662-1.526-7.334.079l-.006-.006c-1.136 1.086-1.81 2.848-1.81 5.157v78.872c0 2.31.674 4.068 1.81 5.16l.006-.006c1.672 1.605 4.335 1.762 7.334.079l70.178-39.517c5.03-2.833 5.03-7.474 0-10.305v.003z" fill="url(#a)" fill-rule="nonzero" transform="translate(-10 -4)"/><path d="M79.862 41.405L9.667 1.892C4.637-.942.52 1.415.52 7.122v-.517C.52.893 4.634-1.458 9.667 1.37l70.195 39.516c2.632 1.481 3.872 3.457 3.751 5.412-.11-1.779-1.35-3.54-3.748-4.89l-.003-.003z" fill="#FFF" fill-rule="nonzero" opacity=".1"/><path d="M13.146 12.679v55.244c0 1.72 1.42 3.128 3.156 3.128h28.263l29.602-16.667V12.679H13.146z" fill="#7DA1B3" fill-rule="nonzero"/><path fill="#5B7C8C" fill-rule="nonzero" d="M74.167 25.186H13.146V12.68h61.02z"/><path d="M23.146 16.679v55.244c0 1.72 1.42 3.128 3.156 3.128h28.263l29.602-16.667V16.679H23.146z" fill="url(#b)" fill-rule="nonzero" transform="translate(-10 -4)"/><path fill="#FFF" fill-rule="nonzero" opacity=".15" d="M13.146 12.679h61.02v1.613h-61.02z"/><path d="M60.49 31.962c-2.326 0-4.209 1.865-4.209 4.169 0 .578.12 1.125.331 1.627L49.506 44.8a4.287 4.287 0 0 0-3.283 0l-2.898-2.873c.22-.514.333-1.068.331-1.627 0-2.3-1.882-4.17-4.208-4.17-2.326 0-4.208 1.866-4.208 4.17 0 .58.12 1.128.33 1.627l-7.106 7.042a4.287 4.287 0 0 0-1.641-.328c-2.326 0-4.208 1.865-4.208 4.169 0 2.3 1.882 4.169 4.208 4.169 2.326 0 4.208-1.866 4.208-4.17a4.18 4.18 0 0 0-.33-1.627l7.106-7.041a4.287 4.287 0 0 0 3.282 0l2.898 2.872a4.105 4.105 0 0 0-.33 1.628c0 2.3 1.882 4.169 4.208 4.169 2.325 0 4.208-1.866 4.208-4.17a4.18 4.18 0 0 0-.331-1.627l7.106-7.042c.52.219 1.078.33 1.642.329 2.325 0 4.208-1.866 4.208-4.17 0-2.3-1.883-4.168-4.208-4.168z" fill="#FAFAFA" fill-rule="nonzero"/></g></svg>